<?xml version="1.0" encoding="UTF-8" standalone="no"?>
<!DOCTYPE svg PUBLIC "-//W3C//DTD SVG 1.1//EN"
 "http://www.w3.org/Graphics/SVG/1.1/DTD/svg11.dtd">
<!-- Generated by graphviz version 8.0.5 (0)
 -->
<!-- Title: dependency&#45;cruiser output Pages: 1 -->
<svg width="1091pt" height="776pt"
 viewBox="0.00 0.00 1091.00 776.00" xmlns="http://www.w3.org/2000/svg" xmlns:xlink="http://www.w3.org/1999/xlink">
<g id="graph0" class="graph" transform="scale(1 1) rotate(0) translate(4 772)">
<title>dependency&#45;cruiser output</title>
<polygon fill="#21201e" stroke="none" points="-4,4 -4,-772 1087,-772 1087,4 -4,4"/>
<g id="clust1" class="cluster">
<title>cluster_packages</title>
<path fill="none" stroke="white" stroke-width="2" d="M20,-44C20,-44 1063,-44 1063,-44 1069,-44 1075,-50 1075,-56 1075,-56 1075,-748 1075,-748 1075,-754 1069,-760 1063,-760 1063,-760 20,-760 20,-760 14,-760 8,-754 8,-748 8,-748 8,-56 8,-56 8,-50 14,-44 20,-44"/>
<text text-anchor="middle" x="541.5" y="-747.45" font-family="Helvetica,sans-Serif" font-weight="bold" font-size="9.00" fill="white">packages</text>
</g>
<g id="clust2" class="cluster">
<title>cluster_packages/client&#45;chess&#45;terminal</title>
<path fill="none" stroke="white" stroke-width="2" d="M28,-169C28,-169 331,-169 331,-169 337,-169 343,-175 343,-181 343,-181 343,-277 343,-277 343,-283 337,-289 331,-289 331,-289 28,-289 28,-289 22,-289 16,-283 16,-277 16,-277 16,-181 16,-181 16,-175 22,-169 28,-169"/>
<text text-anchor="middle" x="179.5" y="-276.45" font-family="Helvetica,sans-Serif" font-weight="bold" font-size="9.00" fill="white">client&#45;chess&#45;terminal</text>
</g>
<g id="clust3" class="cluster">
<title>cluster_packages/client&#45;chess&#45;terminal/src</title>
<path fill="none" stroke="white" stroke-width="2" d="M36,-177C36,-177 323,-177 323,-177 329,-177 335,-183 335,-189 335,-189 335,-250 335,-250 335,-256 329,-262 323,-262 323,-262 36,-262 36,-262 30,-262 24,-256 24,-250 24,-250 24,-189 24,-189 24,-183 30,-177 36,-177"/>
<text text-anchor="middle" x="179.5" y="-249.45" font-family="Helvetica,sans-Serif" font-weight="bold" font-size="9.00" fill="white">src</text>
</g>
<g id="clust4" class="cluster">
<title>cluster_packages/client&#45;text&#45;terminal&#45;unix</title>
<path fill="none" stroke="white" stroke-width="2" d="M252.75,-52C252.75,-52 565.62,-52 565.62,-52 571.62,-52 577.62,-58 577.62,-64 577.62,-64 577.62,-146 577.62,-146 577.62,-152 571.62,-158 565.62,-158 565.62,-158 252.75,-158 252.75,-158 246.75,-158 240.75,-152 240.75,-146 240.75,-146 240.75,-64 240.75,-64 240.75,-58 246.75,-52 252.75,-52"/>
<text text-anchor="middle" x="409.19" y="-145.45" font-family="Helvetica,sans-Serif" font-weight="bold" font-size="9.00" fill="white">client&#45;text&#45;terminal&#45;unix</text>
</g>
<g id="clust5" class="cluster">
<title>cluster_packages/client&#45;text&#45;terminal&#45;unix/src</title>
<path fill="none" stroke="white" stroke-width="2" d="M260.75,-60C260.75,-60 557.62,-60 557.62,-60 563.62,-60 569.62,-66 569.62,-72 569.62,-72 569.62,-119 569.62,-119 569.62,-125 563.62,-131 557.62,-131 557.62,-131 260.75,-131 260.75,-131 254.75,-131 248.75,-125 248.75,-119 248.75,-119 248.75,-72 248.75,-72 248.75,-66 254.75,-60 260.75,-60"/>
<text text-anchor="middle" x="409.19" y="-118.45" font-family="Helvetica,sans-Serif" font-weight="bold" font-size="9.00" fill="white">src</text>
</g>
<g id="clust6" class="cluster">
<title>cluster_packages/tree&#45;chess</title>
<path fill="none" stroke="white" stroke-width="2" d="M131.12,-297C131.12,-297 463.25,-297 463.25,-297 469.25,-297 475.25,-303 475.25,-309 475.25,-309 475.25,-405 475.25,-405 475.25,-411 469.25,-417 463.25,-417 463.25,-417 131.12,-417 131.12,-417 125.12,-417 119.12,-411 119.12,-405 119.12,-405 119.12,-309 119.12,-309 119.12,-303 125.12,-297 131.12,-297"/>
<text text-anchor="middle" x="297.19" y="-404.45" font-family="Helvetica,sans-Serif" font-weight="bold" font-size="9.00" fill="white">tree&#45;chess</text>
</g>
<g id="clust7" class="cluster">
<title>cluster_packages/tree&#45;chess/src</title>
<path fill="none" stroke="white" stroke-width="2" d="M139.12,-305C139.12,-305 455.25,-305 455.25,-305 461.25,-305 467.25,-311 467.25,-317 467.25,-317 467.25,-378 467.25,-378 467.25,-384 461.25,-390 455.25,-390 455.25,-390 139.12,-390 139.12,-390 133.12,-390 127.12,-384 127.12,-378 127.12,-378 127.12,-317 127.12,-317 127.12,-311 133.12,-305 139.12,-305"/>
<text text-anchor="middle" x="297.19" y="-377.45" font-family="Helvetica,sans-Serif" font-weight="bold" font-size="9.00" fill="white">src</text>
</g>
<g id="clust8" class="cluster">
<title>cluster_packages/tree&#45;core</title>
<path fill="none" stroke="white" stroke-width="2" d="M495.25,-166C495.25,-166 1055,-166 1055,-166 1061,-166 1067,-172 1067,-178 1067,-178 1067,-721 1067,-721 1067,-727 1061,-733 1055,-733 1055,-733 495.25,-733 495.25,-733 489.25,-733 483.25,-727 483.25,-721 483.25,-721 483.25,-178 483.25,-178 483.25,-172 489.25,-166 495.25,-166"/>
<text text-anchor="middle" x="775.12" y="-720.45" font-family="Helvetica,sans-Serif" font-weight="bold" font-size="9.00" fill="white">tree&#45;core</text>
</g>
<g id="clust9" class="cluster">
<title>cluster_packages/tree&#45;core/src</title>
<path fill="none" stroke="white" stroke-width="2" d="M503.25,-174C503.25,-174 1047,-174 1047,-174 1053,-174 1059,-180 1059,-186 1059,-186 1059,-694 1059,-694 1059,-700 1053,-706 1047,-706 1047,-706 503.25,-706 503.25,-706 497.25,-706 491.25,-700 491.25,-694 491.25,-694 491.25,-186 491.25,-186 491.25,-180 497.25,-174 503.25,-174"/>
<text text-anchor="middle" x="775.12" y="-693.45" font-family="Helvetica,sans-Serif" font-weight="bold" font-size="9.00" fill="white">src</text>
</g>
<g id="clust10" class="cluster">
<title>cluster_packages/tree&#45;core/src/core</title>
<path fill="none" stroke="white" stroke-width="2" d="M597.62,-467C597.62,-467 1028.75,-467 1028.75,-467 1034.75,-467 1040.75,-473 1040.75,-479 1040.75,-479 1040.75,-588 1040.75,-588 1040.75,-594 1034.75,-600 1028.75,-600 1028.75,-600 597.62,-600 597.62,-600 591.62,-600 585.62,-594 585.62,-588 585.62,-588 585.62,-479 585.62,-479 585.62,-473 591.62,-467 597.62,-467"/>
<text text-anchor="middle" x="813.19" y="-587.45" font-family="Helvetica,sans-Serif" font-weight="bold" font-size="9.00" fill="white">core</text>
</g>
<g id="clust11" class="cluster">
<title>cluster_packages/tree&#45;core/src/generators</title>
<path fill="none" stroke="white" stroke-width="2" d="M667.62,-182C667.62,-182 849,-182 849,-182 855,-182 861,-188 861,-194 861,-194 861,-289 861,-289 861,-295 855,-301 849,-301 849,-301 667.62,-301 667.62,-301 661.62,-301 655.62,-295 655.62,-289 655.62,-289 655.62,-194 655.62,-194 655.62,-188 661.62,-182 667.62,-182"/>
<text text-anchor="middle" x="758.31" y="-288.45" font-family="Helvetica,sans-Serif" font-weight="bold" font-size="9.00" fill="white">generators</text>
</g>
<g id="clust12" class="cluster">
<title>cluster_packages/tree&#45;core/src/presenters</title>
<path fill="none" stroke="white" stroke-width="2" d="M597.62,-388C597.62,-388 746.5,-388 746.5,-388 752.5,-388 758.5,-394 758.5,-400 758.5,-400 758.5,-447 758.5,-447 758.5,-453 752.5,-459 746.5,-459 746.5,-459 597.62,-459 597.62,-459 591.62,-459 585.62,-453 585.62,-447 585.62,-447 585.62,-400 585.62,-400 585.62,-394 591.62,-388 597.62,-388"/>
<text text-anchor="middle" x="672.06" y="-446.45" font-family="Helvetica,sans-Serif" font-weight="bold" font-size="9.00" fill="white">presenters</text>
</g>
<g id="clust13" class="cluster">
<title>cluster_packages/tree&#45;core/src/stores</title>
<path fill="none" stroke="white" stroke-width="2" d="M686.88,-309C686.88,-309 847.12,-309 847.12,-309 853.12,-309 859.12,-315 859.12,-321 859.12,-321 859.12,-368 859.12,-368 859.12,-374 853.12,-380 847.12,-380 847.12,-380 686.88,-380 686.88,-380 680.88,-380 674.88,-374 674.88,-368 674.88,-368 674.88,-321 674.88,-321 674.88,-315 680.88,-309 686.88,-309"/>
<text text-anchor="middle" x="767" y="-367.45" font-family="Helvetica,sans-Serif" font-weight="bold" font-size="9.00" fill="white">stores</text>
</g>
<g id="clust14" class="cluster">
<title>cluster_packages/tree&#45;core/src/utils</title>
<path fill="none" stroke="white" stroke-width="2" d="M889.25,-608C889.25,-608 1039,-608 1039,-608 1045,-608 1051,-614 1051,-620 1051,-620 1051,-667 1051,-667 1051,-673 1045,-679 1039,-679 1039,-679 889.25,-679 889.25,-679 883.25,-679 877.25,-673 877.25,-667 877.25,-667 877.25,-620 877.25,-620 877.25,-614 883.25,-608 889.25,-608"/>
<text text-anchor="middle" x="964.12" y="-666.45" font-family="Helvetica,sans-Serif" font-weight="bold" font-size="9.00" fill="white">utils</text>
</g>
<!-- crypto -->
<g id="node1" class="node">
<title>crypto</title>
<g id="a_node1"><a xlink:title="crypto">
<path fill="black" stroke="white" d="M927.25,-36C927.25,-36 897.25,-36 897.25,-36 891.25,-36 885.25,-30 885.25,-24 885.25,-24 885.25,-12 885.25,-12 885.25,-6 891.25,0 897.25,0 897.25,0 927.25,0 927.25,0 933.25,0 939.25,-6 939.25,-12 939.25,-12 939.25,-24 939.25,-24 939.25,-30 933.25,-36 927.25,-36"/>
<text text-anchor="middle" x="912.25" y="-14.7" font-family="Helvetica,sans-Serif" font-size="9.00" fill="white">crypto</text>
</a>
</g>
</g>
<!-- packages/client&#45;chess&#45;terminal/src/ChessTerminal.ts -->
<g id="node2" class="node">
<title>packages/client&#45;chess&#45;terminal/src/ChessTerminal.ts</title>
<g id="a_node2"><a xlink:href="packages/client-chess-terminal/src/ChessTerminal.ts" xlink:title="ChessTerminal.ts">
<path fill="black" stroke="white" d="M315,-235C315,-235 252.5,-235 252.5,-235 246.5,-235 240.5,-229 240.5,-223 240.5,-223 240.5,-211 240.5,-211 240.5,-205 246.5,-199 252.5,-199 252.5,-199 315,-199 315,-199 321,-199 327,-205 327,-211 327,-211 327,-223 327,-223 327,-229 321,-235 315,-235"/>
<text text-anchor="start" x="248.5" y="-213.7" font-family="Helvetica,sans-Serif" font-size="9.00" fill="white">ChessTerminal.ts</text>
</a>
</g>
</g>
<!-- packages/tree&#45;core/src/index.ts -->
<g id="node3" class="node">
<title>packages/tree&#45;core/src/index.ts</title>
<g id="a_node3"><a xlink:href="packages/tree-core/src/index.ts" xlink:title="index.ts">
<path fill="black" stroke="white" d="M541.25,-349C541.25,-349 511.25,-349 511.25,-349 505.25,-349 499.25,-343 499.25,-337 499.25,-337 499.25,-325 499.25,-325 499.25,-319 505.25,-313 511.25,-313 511.25,-313 541.25,-313 541.25,-313 547.25,-313 553.25,-319 553.25,-325 553.25,-325 553.25,-337 553.25,-337 553.25,-343 547.25,-349 541.25,-349"/>
<text text-anchor="start" x="510.5" y="-327.7" font-family="Helvetica,sans-Serif" font-size="9.00" fill="white">index.ts</text>
</a>
</g>
</g>
<!-- packages/client&#45;chess&#45;terminal/src/ChessTerminal.ts&#45;&gt;packages/tree&#45;core/src/index.ts -->
<g id="edge1" class="edge">
<title>packages/client&#45;chess&#45;terminal/src/ChessTerminal.ts&#45;&gt;packages/tree&#45;core/src/index.ts</title>
<path fill="none" stroke="lightgray" d="M327.41,-219.31C368.35,-223.31 430.4,-234.24 475.25,-264 491.94,-275.08 505.17,-293.68 513.82,-308.48"/>
<polygon fill="lightgray" stroke="lightgray" points="516.13,-312.55 511.7,-309.32 514.89,-310.38 513.66,-308.2 513.66,-308.2 513.66,-308.2 514.89,-310.38 515.61,-307.09 516.13,-312.55 516.13,-312.55"/>
</g>
<!-- packages/tree&#45;core/src/core/index.ts -->
<g id="node13" class="node">
<title>packages/tree&#45;core/src/core/index.ts</title>
<g id="a_node13"><a xlink:href="packages/tree-core/src/core/index.ts" xlink:title="index.ts">
<path fill="black" stroke="white" d="M635.62,-521C635.62,-521 605.62,-521 605.62,-521 599.62,-521 593.62,-515 593.62,-509 593.62,-509 593.62,-497 593.62,-497 593.62,-491 599.62,-485 605.62,-485 605.62,-485 635.62,-485 635.62,-485 641.62,-485 647.62,-491 647.62,-497 647.62,-497 647.62,-509 647.62,-509 647.62,-515 641.62,-521 635.62,-521"/>
<text text-anchor="start" x="604.88" y="-499.7" font-family="Helvetica,sans-Serif" font-size="9.00" fill="white">index.ts</text>
</a>
</g>
</g>
<!-- packages/tree&#45;core/src/index.ts&#45;&gt;packages/tree&#45;core/src/core/index.ts -->
<g id="edge35" class="edge">
<title>packages/tree&#45;core/src/index.ts&#45;&gt;packages/tree&#45;core/src/core/index.ts</title>
<path fill="none" stroke="lightgray" d="M533.53,-349.15C542.94,-375.18 562.11,-424.14 585.62,-462 589.67,-468.51 594.65,-475.09 599.54,-481.03"/>
<polygon fill="lightgray" stroke="lightgray" points="602.57,-484.63 597.63,-482.25 600.96,-482.72 599.36,-480.8 599.36,-480.8 599.36,-480.8 600.96,-482.72 601.08,-479.36 602.57,-484.63 602.57,-484.63"/>
</g>
<!-- packages/tree&#45;core/src/generators/index.ts -->
<g id="node22" class="node">
<title>packages/tree&#45;core/src/generators/index.ts</title>
<g id="a_node22"><a xlink:href="packages/tree-core/src/generators/index.ts" xlink:title="index.ts">
<path fill="black" stroke="white" d="M724.88,-226C724.88,-226 694.88,-226 694.88,-226 688.88,-226 682.88,-220 682.88,-214 682.88,-214 682.88,-202 682.88,-202 682.88,-196 688.88,-190 694.88,-190 694.88,-190 724.88,-190 724.88,-190 730.88,-190 736.88,-196 736.88,-202 736.88,-202 736.88,-214 736.88,-214 736.88,-220 730.88,-226 724.88,-226"/>
<text text-anchor="start" x="694.12" y="-204.7" font-family="Helvetica,sans-Serif" font-size="9.00" fill="white">index.ts</text>
</a>
</g>
</g>
<!-- packages/tree&#45;core/src/index.ts&#45;&gt;packages/tree&#45;core/src/generators/index.ts -->
<g id="edge36" class="edge">
<title>packages/tree&#45;core/src/index.ts&#45;&gt;packages/tree&#45;core/src/generators/index.ts</title>
<path fill="none" stroke="lightgray" d="M547.95,-312.57C572.46,-291.35 615.07,-256.32 655.62,-232 662.74,-227.73 670.75,-223.74 678.36,-220.28"/>
<polygon fill="lightgray" stroke="lightgray" points="682.53,-218.42 678.88,-222.51 680.25,-219.44 677.96,-220.46 677.96,-220.46 677.96,-220.46 680.25,-219.44 677.05,-218.4 682.53,-218.42 682.53,-218.42"/>
</g>
<!-- packages/tree&#45;core/src/presenters/index.ts -->
<g id="node23" class="node">
<title>packages/tree&#45;core/src/presenters/index.ts</title>
<g id="a_node23"><a xlink:href="packages/tree-core/src/presenters/index.ts" xlink:title="index.ts">
<path fill="black" stroke="white" d="M635.62,-432C635.62,-432 605.62,-432 605.62,-432 599.62,-432 593.62,-426 593.62,-420 593.62,-420 593.62,-408 593.62,-408 593.62,-402 599.62,-396 605.62,-396 605.62,-396 635.62,-396 635.62,-396 641.62,-396 647.62,-402 647.62,-408 647.62,-408 647.62,-420 647.62,-420 647.62,-426 641.62,-432 635.62,-432"/>
<text text-anchor="start" x="604.88" y="-410.7" font-family="Helvetica,sans-Serif" font-size="9.00" fill="white">index.ts</text>
</a>
</g>
</g>
<!-- packages/tree&#45;core/src/index.ts&#45;&gt;packages/tree&#45;core/src/presenters/index.ts -->
<g id="edge37" class="edge">
<title>packages/tree&#45;core/src/index.ts&#45;&gt;packages/tree&#45;core/src/presenters/index.ts</title>
<path fill="none" stroke="lightgray" d="M542.84,-349.44C554.06,-362.15 569.92,-379.02 585.62,-392 586.82,-392.99 588.06,-393.96 589.32,-394.93"/>
<polygon fill="lightgray" stroke="lightgray" points="593.2,-397.78 587.84,-396.63 591.18,-396.3 589.17,-394.82 589.17,-394.82 589.17,-394.82 591.18,-396.3 590.5,-393.01 593.2,-397.78 593.2,-397.78"/>
</g>
<!-- packages/tree&#45;core/src/stores/index.ts -->
<g id="node24" class="node">
<title>packages/tree&#45;core/src/stores/index.ts</title>
<g id="a_node24"><a xlink:href="packages/tree-core/src/stores/index.ts" xlink:title="index.ts">
<path fill="black" stroke="white" d="M724.88,-353C724.88,-353 694.88,-353 694.88,-353 688.88,-353 682.88,-347 682.88,-341 682.88,-341 682.88,-329 682.88,-329 682.88,-323 688.88,-317 694.88,-317 694.88,-317 724.88,-317 724.88,-317 730.88,-317 736.88,-323 736.88,-329 736.88,-329 736.88,-341 736.88,-341 736.88,-347 730.88,-353 724.88,-353"/>
<text text-anchor="start" x="694.12" y="-331.7" font-family="Helvetica,sans-Serif" font-size="9.00" fill="white">index.ts</text>
</a>
</g>
</g>
<!-- packages/tree&#45;core/src/index.ts&#45;&gt;packages/tree&#45;core/src/stores/index.ts -->
<g id="edge38" class="edge">
<title>packages/tree&#45;core/src/index.ts&#45;&gt;packages/tree&#45;core/src/stores/index.ts</title>
<path fill="none" stroke="lightgray" d="M553.66,-331.58C586.62,-332.31 642.88,-333.55 677.86,-334.32"/>
<polygon fill="lightgray" stroke="lightgray" points="682.43,-334.42 677.38,-336.56 679.93,-334.36 677.43,-334.31 677.43,-334.31 677.43,-334.31 679.93,-334.36 677.48,-332.06 682.43,-334.42 682.43,-334.42"/>
</g>
<!-- packages/tree&#45;core/src/utils/index.ts -->
<g id="node25" class="node">
<title>packages/tree&#45;core/src/utils/index.ts</title>
<g id="a_node25"><a xlink:href="packages/tree-core/src/utils/index.ts" xlink:title="index.ts">
<path fill="black" stroke="white" d="M927.25,-652C927.25,-652 897.25,-652 897.25,-652 891.25,-652 885.25,-646 885.25,-640 885.25,-640 885.25,-628 885.25,-628 885.25,-622 891.25,-616 897.25,-616 897.25,-616 927.25,-616 927.25,-616 933.25,-616 939.25,-622 939.25,-628 939.25,-628 939.25,-640 939.25,-640 939.25,-646 933.25,-652 927.25,-652"/>
<text text-anchor="start" x="896.5" y="-630.7" font-family="Helvetica,sans-Serif" font-size="9.00" fill="white">index.ts</text>
</a>
</g>
</g>
<!-- packages/tree&#45;core/src/index.ts&#45;&gt;packages/tree&#45;core/src/utils/index.ts -->
<g id="edge39" class="edge">
<title>packages/tree&#45;core/src/index.ts&#45;&gt;packages/tree&#45;core/src/utils/index.ts</title>
<path fill="none" stroke="lightgray" d="M528.44,-349.33C532.44,-404.77 547.38,-568.97 585.62,-603 668.94,-677.13 816.05,-655.77 880.05,-641.8"/>
<polygon fill="lightgray" stroke="lightgray" points="884.88,-640.73 880.49,-644.01 882.44,-641.27 880,-641.81 880,-641.81 880,-641.81 882.44,-641.27 879.51,-639.62 884.88,-640.73 884.88,-640.73"/>
</g>
<!-- packages/client&#45;chess&#45;terminal/src/ChessTerminalController.ts -->
<g id="node4" class="node">
<title>packages/client&#45;chess&#45;terminal/src/ChessTerminalController.ts</title>
<g id="a_node4"><a xlink:href="packages/client-chess-terminal/src/ChessTerminalController.ts" xlink:title="ChessTerminalController.ts">
<path fill="black" stroke="white" d="M213.25,-221C213.25,-221 111,-221 111,-221 105,-221 99,-215 99,-209 99,-209 99,-197 99,-197 99,-191 105,-185 111,-185 111,-185 213.25,-185 213.25,-185 219.25,-185 225.25,-191 225.25,-197 225.25,-197 225.25,-209 225.25,-209 225.25,-215 219.25,-221 213.25,-221"/>
<text text-anchor="start" x="107" y="-199.7" font-family="Helvetica,sans-Serif" font-size="9.00" fill="white">ChessTerminalController.ts</text>
</a>
</g>
</g>
<!-- packages/client&#45;chess&#45;terminal/src/ChessTerminalController.ts&#45;&gt;packages/client&#45;chess&#45;terminal/src/ChessTerminal.ts -->
<g id="edge2" class="edge">
<title>packages/client&#45;chess&#45;terminal/src/ChessTerminalController.ts&#45;&gt;packages/client&#45;chess&#45;terminal/src/ChessTerminal.ts</title>
<path fill="none" stroke="lightgray" d="M225.74,-210.33C228.93,-210.7 232.11,-211.07 235.24,-211.44"/>
<polygon fill="lightgray" stroke="lightgray" points="240.12,-212.01 234.89,-213.66 237.64,-211.72 235.16,-211.43 235.16,-211.43 235.16,-211.43 237.64,-211.72 235.42,-209.2 240.12,-212.01 240.12,-212.01"/>
</g>
<!-- readline -->
<g id="node5" class="node">
<title>readline</title>
<g id="a_node5"><a xlink:title="readline">
<path fill="black" stroke="white" d="M298.75,-36C298.75,-36 268.75,-36 268.75,-36 262.75,-36 256.75,-30 256.75,-24 256.75,-24 256.75,-12 256.75,-12 256.75,-6 262.75,0 268.75,0 268.75,0 298.75,0 298.75,0 304.75,0 310.75,-6 310.75,-12 310.75,-12 310.75,-24 310.75,-24 310.75,-30 304.75,-36 298.75,-36"/>
<text text-anchor="middle" x="283.75" y="-14.7" font-family="Helvetica,sans-Serif" font-size="9.00" fill="white">readline</text>
</a>
</g>
</g>
<!-- packages/client&#45;chess&#45;terminal/src/ChessTerminalController.ts&#45;&gt;readline -->
<g id="edge3" class="edge">
<title>packages/client&#45;chess&#45;terminal/src/ChessTerminalController.ts&#45;&gt;readline</title>
<path fill="none" stroke="lightgray" stroke-dasharray="5,2" d="M169.95,-184.66C181.28,-155.67 205.96,-98.33 238.25,-57 243.07,-50.83 248.96,-44.88 254.86,-39.56"/>
<polygon fill="lightgray" stroke="lightgray" points="258.52,-36.34 256.26,-41.33 256.65,-37.99 254.77,-39.64 254.77,-39.64 254.77,-39.64 256.65,-37.99 253.28,-37.95 258.52,-36.34 258.52,-36.34"/>
</g>
<!-- packages/client&#45;chess&#45;terminal/src/main.ts -->
<g id="node6" class="node">
<title>packages/client&#45;chess&#45;terminal/src/main.ts</title>
<g id="a_node6"><a xlink:href="packages/client-chess-terminal/src/main.ts" xlink:title="main.ts">
<path fill="black" stroke="white" d="M74,-235C74,-235 44,-235 44,-235 38,-235 32,-229 32,-223 32,-223 32,-211 32,-211 32,-205 38,-199 44,-199 44,-199 74,-199 74,-199 80,-199 86,-205 86,-211 86,-211 86,-223 86,-223 86,-229 80,-235 74,-235"/>
<text text-anchor="start" x="44.38" y="-213.7" font-family="Helvetica,sans-Serif" font-size="9.00" fill="white">main.ts</text>
</a>
</g>
</g>
<!-- packages/client&#45;chess&#45;terminal/src/main.ts&#45;&gt;packages/client&#45;chess&#45;terminal/src/ChessTerminal.ts -->
<g id="edge4" class="edge">
<title>packages/client&#45;chess&#45;terminal/src/main.ts&#45;&gt;packages/client&#45;chess&#45;terminal/src/ChessTerminal.ts</title>
<path fill="none" stroke="lightgray" d="M86.26,-224.69C90.49,-225.65 94.84,-226.48 99,-227 154.67,-234.02 169.35,-231.82 225.25,-227 228.58,-226.71 232.01,-226.33 235.45,-225.89"/>
<polygon fill="lightgray" stroke="lightgray" points="240.15,-225.25 235.5,-228.15 237.68,-225.59 235.2,-225.92 235.2,-225.92 235.2,-225.92 237.68,-225.59 234.89,-223.7 240.15,-225.25 240.15,-225.25"/>
</g>
<!-- packages/client&#45;chess&#45;terminal/src/main.ts&#45;&gt;packages/tree&#45;core/src/index.ts -->
<g id="edge7" class="edge">
<title>packages/client&#45;chess&#45;terminal/src/main.ts&#45;&gt;packages/tree&#45;core/src/index.ts</title>
<path fill="none" stroke="lightgray" d="M86.17,-228.6C90.41,-230.23 94.79,-231.76 99,-233 262.14,-280.86 315.75,-243.15 475.25,-302 481.75,-304.4 488.38,-307.61 494.6,-311.03"/>
<polygon fill="lightgray" stroke="lightgray" points="498.84,-313.42 493.38,-312.92 496.66,-312.19 494.48,-310.96 494.48,-310.96 494.48,-310.96 496.66,-312.19 495.59,-309 498.84,-313.42 498.84,-313.42"/>
</g>
<!-- packages/client&#45;chess&#45;terminal/src/main.ts&#45;&gt;packages/client&#45;chess&#45;terminal/src/ChessTerminalController.ts -->
<g id="edge5" class="edge">
<title>packages/client&#45;chess&#45;terminal/src/main.ts&#45;&gt;packages/client&#45;chess&#45;terminal/src/ChessTerminalController.ts</title>
<path fill="none" stroke="lightgray" d="M86.31,-213.36C88.72,-213.02 91.23,-212.68 93.81,-212.32"/>
<polygon fill="lightgray" stroke="lightgray" points="98.51,-211.67 93.86,-214.58 96.03,-212.01 93.55,-212.35 93.55,-212.35 93.55,-212.35 96.03,-212.01 93.25,-210.13 98.51,-211.67 98.51,-211.67"/>
</g>
<!-- packages/tree&#45;chess/src/index.ts -->
<g id="node7" class="node">
<title>packages/tree&#45;chess/src/index.ts</title>
<g id="a_node7"><a xlink:href="packages/tree-chess/src/index.ts" xlink:title="index.ts">
<path fill="black" stroke="white" d="M177.12,-349C177.12,-349 147.12,-349 147.12,-349 141.12,-349 135.12,-343 135.12,-337 135.12,-337 135.12,-325 135.12,-325 135.12,-319 141.12,-313 147.12,-313 147.12,-313 177.12,-313 177.12,-313 183.12,-313 189.12,-319 189.12,-325 189.12,-325 189.12,-337 189.12,-337 189.12,-343 183.12,-349 177.12,-349"/>
<text text-anchor="start" x="146.38" y="-327.7" font-family="Helvetica,sans-Serif" font-size="9.00" fill="white">index.ts</text>
</a>
</g>
</g>
<!-- packages/client&#45;chess&#45;terminal/src/main.ts&#45;&gt;packages/tree&#45;chess/src/index.ts -->
<g id="edge6" class="edge">
<title>packages/client&#45;chess&#45;terminal/src/main.ts&#45;&gt;packages/tree&#45;chess/src/index.ts</title>
<path fill="none" stroke="lightgray" d="M71.8,-235.5C79.13,-246.5 89.03,-260.5 99,-272 110.39,-285.14 124.33,-298.58 136.12,-309.31"/>
<polygon fill="lightgray" stroke="lightgray" points="139.7,-312.55 134.49,-310.87 137.85,-310.88 135.99,-309.2 135.99,-309.2 135.99,-309.2 137.85,-310.88 137.5,-307.53 139.7,-312.55 139.7,-312.55"/>
</g>
<!-- packages/tree&#45;chess/src/GeneratorChess.ts -->
<g id="node11" class="node">
<title>packages/tree&#45;chess/src/GeneratorChess.ts</title>
<g id="a_node11"><a xlink:href="packages/tree-chess/src/GeneratorChess.ts" xlink:title="GeneratorChess.ts">
<path fill="black" stroke="white" d="M447.25,-349C447.25,-349 378.75,-349 378.75,-349 372.75,-349 366.75,-343 366.75,-337 366.75,-337 366.75,-325 366.75,-325 366.75,-319 372.75,-313 378.75,-313 378.75,-313 447.25,-313 447.25,-313 453.25,-313 459.25,-319 459.25,-325 459.25,-325 459.25,-337 459.25,-337 459.25,-343 453.25,-349 447.25,-349"/>
<text text-anchor="start" x="374.75" y="-327.7" font-family="Helvetica,sans-Serif" font-size="9.00" fill="white">GeneratorChess.ts</text>
</a>
</g>
</g>
<!-- packages/tree&#45;chess/src/index.ts&#45;&gt;packages/tree&#45;chess/src/GeneratorChess.ts -->
<g id="edge15" class="edge">
<title>packages/tree&#45;chess/src/index.ts&#45;&gt;packages/tree&#45;chess/src/GeneratorChess.ts</title>
<path fill="none" stroke="lightgray" d="M189.46,-326.63C203.84,-324.46 221.97,-322.08 238.25,-321 284.7,-317.92 296.56,-317.65 343,-321 349.06,-321.44 355.4,-322.09 361.67,-322.85"/>
<polygon fill="lightgray" stroke="lightgray" points="366.45,-323.45 361.21,-325.06 363.97,-323.14 361.49,-322.83 361.49,-322.83 361.49,-322.83 363.97,-323.14 361.77,-320.59 366.45,-323.45 366.45,-323.45"/>
</g>
<!-- packages/tree&#45;chess/src/PresenterChess.ts -->
<g id="node12" class="node">
<title>packages/tree&#45;chess/src/PresenterChess.ts</title>
<g id="a_node12"><a xlink:href="packages/tree-chess/src/PresenterChess.ts" xlink:title="PresenterChess.ts">
<path fill="black" stroke="white" d="M317.25,-363C317.25,-363 250.25,-363 250.25,-363 244.25,-363 238.25,-357 238.25,-351 238.25,-351 238.25,-339 238.25,-339 238.25,-333 244.25,-327 250.25,-327 250.25,-327 317.25,-327 317.25,-327 323.25,-327 329.25,-333 329.25,-339 329.25,-339 329.25,-351 329.25,-351 329.25,-357 323.25,-363 317.25,-363"/>
<text text-anchor="start" x="246.25" y="-341.7" font-family="Helvetica,sans-Serif" font-size="9.00" fill="white">PresenterChess.ts</text>
</a>
</g>
</g>
<!-- packages/tree&#45;chess/src/index.ts&#45;&gt;packages/tree&#45;chess/src/PresenterChess.ts -->
<g id="edge16" class="edge">
<title>packages/tree&#45;chess/src/index.ts&#45;&gt;packages/tree&#45;chess/src/PresenterChess.ts</title>
<path fill="none" stroke="lightgray" d="M189.38,-334.07C202.34,-335.59 218.42,-337.47 233.55,-339.24"/>
<polygon fill="lightgray" stroke="lightgray" points="238.22,-339.79 232.99,-341.44 235.73,-339.5 233.25,-339.21 233.25,-339.21 233.25,-339.21 235.73,-339.5 233.51,-336.97 238.22,-339.79 238.22,-339.79"/>
</g>
<!-- packages/client&#45;text&#45;terminal&#45;unix/src/ViewerTextTerminalUnix.ts -->
<g id="node8" class="node">
<title>packages/client&#45;text&#45;terminal&#45;unix/src/ViewerTextTerminalUnix.ts</title>
<g id="a_node8"><a xlink:href="packages/client-text-terminal-unix/src/ViewerTextTerminalUnix.ts" xlink:title="ViewerTextTerminalUnix.ts">
<path fill="black" stroke="white" d="M463,-104C463,-104 363,-104 363,-104 357,-104 351,-98 351,-92 351,-92 351,-80 351,-80 351,-74 357,-68 363,-68 363,-68 463,-68 463,-68 469,-68 475,-74 475,-80 475,-80 475,-92 475,-92 475,-98 469,-104 463,-104"/>
<text text-anchor="start" x="359" y="-82.7" font-family="Helvetica,sans-Serif" font-size="9.00" fill="white">ViewerTextTerminalUnix.ts</text>
</a>
</g>
</g>
<!-- packages/client&#45;text&#45;terminal&#45;unix/src/ViewerTextTerminalUnix.ts&#45;&gt;packages/tree&#45;core/src/index.ts -->
<g id="edge9" class="edge">
<title>packages/client&#45;text&#45;terminal&#45;unix/src/ViewerTextTerminalUnix.ts&#45;&gt;packages/tree&#45;core/src/index.ts</title>
<path fill="none" stroke="lightgray" d="M434.88,-104.35C448.18,-117.07 464.81,-135.08 475.25,-154 503.26,-204.76 516.69,-272.56 522.13,-307.69"/>
<polygon fill="lightgray" stroke="lightgray" points="522.88,-312.63 519.91,-308.02 522.5,-310.16 522.13,-307.68 522.13,-307.68 522.13,-307.68 522.5,-310.16 524.36,-307.35 522.88,-312.63 522.88,-312.63"/>
</g>
<!-- packages/client&#45;text&#45;terminal&#45;unix/src/insaneLine.ts -->
<g id="node9" class="node">
<title>packages/client&#45;text&#45;terminal&#45;unix/src/insaneLine.ts</title>
<g id="a_node9"><a xlink:href="packages/client-text-terminal-unix/src/insaneLine.ts" xlink:title="insaneLine.ts">
<path fill="black" stroke="white" d="M549.62,-104C549.62,-104 502.88,-104 502.88,-104 496.88,-104 490.88,-98 490.88,-92 490.88,-92 490.88,-80 490.88,-80 490.88,-74 496.88,-68 502.88,-68 502.88,-68 549.62,-68 549.62,-68 555.62,-68 561.62,-74 561.62,-80 561.62,-80 561.62,-92 561.62,-92 561.62,-98 555.62,-104 549.62,-104"/>
<text text-anchor="start" x="498.88" y="-82.7" font-family="Helvetica,sans-Serif" font-size="9.00" fill="white">insaneLine.ts</text>
</a>
</g>
</g>
<!-- packages/client&#45;text&#45;terminal&#45;unix/src/ViewerTextTerminalUnix.ts&#45;&gt;packages/client&#45;text&#45;terminal&#45;unix/src/insaneLine.ts -->
<g id="edge8" class="edge">
<title>packages/client&#45;text&#45;terminal&#45;unix/src/ViewerTextTerminalUnix.ts&#45;&gt;packages/client&#45;text&#45;terminal&#45;unix/src/insaneLine.ts</title>
<path fill="none" stroke="lightgray" d="M475.48,-86C479.01,-86 482.5,-86 485.9,-86"/>
<polygon fill="lightgray" stroke="lightgray" points="490.48,-86 485.48,-88.25 487.98,-86 485.48,-86 485.48,-86 485.48,-86 487.98,-86 485.48,-83.75 490.48,-86 490.48,-86"/>
</g>
<!-- packages/client&#45;text&#45;terminal&#45;unix/src/main.ts -->
<g id="node10" class="node">
<title>packages/client&#45;text&#45;terminal&#45;unix/src/main.ts</title>
<g id="a_node10"><a xlink:href="packages/client-text-terminal-unix/src/main.ts" xlink:title="main.ts">
<path fill="black" stroke="white" d="M298.75,-104C298.75,-104 268.75,-104 268.75,-104 262.75,-104 256.75,-98 256.75,-92 256.75,-92 256.75,-80 256.75,-80 256.75,-74 262.75,-68 268.75,-68 268.75,-68 298.75,-68 298.75,-68 304.75,-68 310.75,-74 310.75,-80 310.75,-80 310.75,-92 310.75,-92 310.75,-98 304.75,-104 298.75,-104"/>
<text text-anchor="start" x="269.12" y="-82.7" font-family="Helvetica,sans-Serif" font-size="9.00" fill="white">main.ts</text>
</a>
</g>
</g>
<!-- packages/client&#45;text&#45;terminal&#45;unix/src/main.ts&#45;&gt;packages/tree&#45;core/src/index.ts -->
<g id="edge11" class="edge">
<title>packages/client&#45;text&#45;terminal&#45;unix/src/main.ts&#45;&gt;packages/tree&#45;core/src/index.ts</title>
<path fill="none" stroke="lightgray" d="M311.25,-98.56C351.51,-118.82 428.36,-162.25 475.25,-219 497.38,-245.78 511.61,-283.9 519.02,-308.05"/>
<polygon fill="lightgray" stroke="lightgray" points="520.41,-312.68 516.82,-308.54 519.69,-310.29 518.97,-307.89 518.97,-307.89 518.97,-307.89 519.69,-310.29 521.13,-307.24 520.41,-312.68 520.41,-312.68"/>
</g>
<!-- packages/client&#45;text&#45;terminal&#45;unix/src/main.ts&#45;&gt;packages/client&#45;text&#45;terminal&#45;unix/src/ViewerTextTerminalUnix.ts -->
<g id="edge10" class="edge">
<title>packages/client&#45;text&#45;terminal&#45;unix/src/main.ts&#45;&gt;packages/client&#45;text&#45;terminal&#45;unix/src/ViewerTextTerminalUnix.ts</title>
<path fill="none" stroke="lightgray" d="M311.12,-86C321.27,-86 333.38,-86 345.62,-86"/>
<polygon fill="lightgray" stroke="lightgray" points="350.5,-86 345.5,-88.25 348,-86 345.5,-86 345.5,-86 345.5,-86 348,-86 345.5,-83.75 350.5,-86 350.5,-86"/>
</g>
<!-- packages/tree&#45;chess/src/GeneratorChess.ts&#45;&gt;packages/tree&#45;core/src/index.ts -->
<g id="edge12" class="edge">
<title>packages/tree&#45;chess/src/GeneratorChess.ts&#45;&gt;packages/tree&#45;core/src/index.ts</title>
<path fill="none" stroke="lightgray" d="M459.57,-331C471.23,-331 483.49,-331 494.23,-331"/>
<polygon fill="lightgray" stroke="lightgray" points="499.04,-331 494.04,-333.25 496.54,-331 494.04,-331 494.04,-331 494.04,-331 496.54,-331 494.04,-328.75 499.04,-331 499.04,-331"/>
</g>
<!-- packages/tree&#45;chess/src/PresenterChess.ts&#45;&gt;packages/tree&#45;core/src/index.ts -->
<g id="edge14" class="edge">
<title>packages/tree&#45;chess/src/PresenterChess.ts&#45;&gt;packages/tree&#45;core/src/index.ts</title>
<path fill="none" stroke="lightgray" d="M329.61,-354.2C368.59,-360.59 426.33,-366.13 475.25,-355 481.73,-353.52 488.36,-351.1 494.58,-348.34"/>
<polygon fill="lightgray" stroke="lightgray" points="498.81,-346.39 495.21,-350.53 496.54,-347.44 494.27,-348.48 494.27,-348.48 494.27,-348.48 496.54,-347.44 493.33,-346.44 498.81,-346.39 498.81,-346.39"/>
</g>
<!-- packages/tree&#45;chess/src/PresenterChess.ts&#45;&gt;packages/tree&#45;chess/src/GeneratorChess.ts -->
<g id="edge13" class="edge">
<title>packages/tree&#45;chess/src/PresenterChess.ts&#45;&gt;packages/tree&#45;chess/src/GeneratorChess.ts</title>
<path fill="none" stroke="lightgray" d="M329.61,-340.06C339.91,-338.93 350.94,-337.72 361.46,-336.56"/>
<polygon fill="lightgray" stroke="lightgray" points="366.25,-336.03 361.53,-338.82 363.77,-336.31 361.28,-336.58 361.28,-336.58 361.28,-336.58 363.77,-336.31 361.04,-334.34 366.25,-336.03 366.25,-336.03"/>
</g>
<!-- packages/tree&#45;core/src/core/node.ts -->
<g id="node14" class="node">
<title>packages/tree&#45;core/src/core/node.ts</title>
<g id="a_node14"><a xlink:href="packages/tree-core/src/core/node.ts" xlink:title="node.ts">
<path fill="black" stroke="white" d="M1020.75,-526C1020.75,-526 990.75,-526 990.75,-526 984.75,-526 978.75,-520 978.75,-514 978.75,-514 978.75,-502 978.75,-502 978.75,-496 984.75,-490 990.75,-490 990.75,-490 1020.75,-490 1020.75,-490 1026.75,-490 1032.75,-496 1032.75,-502 1032.75,-502 1032.75,-514 1032.75,-514 1032.75,-520 1026.75,-526 1020.75,-526"/>
<text text-anchor="start" x="990.75" y="-504.7" font-family="Helvetica,sans-Serif" font-size="9.00" fill="white">node.ts</text>
</a>
</g>
</g>
<!-- packages/tree&#45;core/src/core/index.ts&#45;&gt;packages/tree&#45;core/src/core/node.ts -->
<g id="edge17" class="edge">
<title>packages/tree&#45;core/src/core/index.ts&#45;&gt;packages/tree&#45;core/src/core/node.ts</title>
<path fill="none" stroke="lightgray" d="M647.98,-502.15C650.56,-502.09 653.15,-502.04 655.62,-502 701.34,-501.33 712.78,-501.78 758.5,-502 804.06,-502.22 821.71,-479.94 861,-503 867.18,-506.63 862.8,-513.4 869,-517 902.25,-536.3 917.21,-520.47 955.5,-517 961.32,-516.47 967.47,-515.6 973.39,-514.61"/>
<polygon fill="lightgray" stroke="lightgray" points="978.29,-513.74 973.75,-516.83 975.83,-514.18 973.36,-514.61 973.36,-514.61 973.36,-514.61 975.83,-514.18 972.97,-512.39 978.29,-513.74 978.29,-513.74"/>
</g>
<!-- packages/tree&#45;core/src/core/nodeGenerator.ts -->
<g id="node15" class="node">
<title>packages/tree&#45;core/src/core/nodeGenerator.ts</title>
<g id="a_node15"><a xlink:href="packages/tree-core/src/core/nodeGenerator.ts" xlink:title="nodeGenerator.ts">
<path fill="black" stroke="white" d="M943.5,-511C943.5,-511 881,-511 881,-511 875,-511 869,-505 869,-499 869,-499 869,-487 869,-487 869,-481 875,-475 881,-475 881,-475 943.5,-475 943.5,-475 949.5,-475 955.5,-481 955.5,-487 955.5,-487 955.5,-499 955.5,-499 955.5,-505 949.5,-511 943.5,-511"/>
<text text-anchor="start" x="877" y="-489.7" font-family="Helvetica,sans-Serif" font-size="9.00" fill="white">nodeGenerator.ts</text>
</a>
</g>
</g>
<!-- packages/tree&#45;core/src/core/index.ts&#45;&gt;packages/tree&#45;core/src/core/nodeGenerator.ts -->
<g id="edge18" class="edge">
<title>packages/tree&#45;core/src/core/index.ts&#45;&gt;packages/tree&#45;core/src/core/nodeGenerator.ts</title>
<path fill="none" stroke="lightgray" d="M647.78,-493.64C650.41,-492.97 653.05,-492.41 655.62,-492 745.79,-477.78 769.73,-491.09 861,-492 861.95,-492.01 862.91,-492.02 863.87,-492.03"/>
<polygon fill="lightgray" stroke="lightgray" points="868.76,-492.09 863.73,-494.28 866.26,-492.06 863.76,-492.03 863.76,-492.03 863.76,-492.03 866.26,-492.06 863.79,-489.78 868.76,-492.09 868.76,-492.09"/>
</g>
<!-- packages/tree&#45;core/src/core/nodePresenter.ts -->
<g id="node16" class="node">
<title>packages/tree&#45;core/src/core/nodePresenter.ts</title>
<g id="a_node16"><a xlink:href="packages/tree-core/src/core/nodePresenter.ts" xlink:title="nodePresenter.ts">
<path fill="black" stroke="white" d="M842.12,-545C842.12,-545 781.12,-545 781.12,-545 775.12,-545 769.12,-539 769.12,-533 769.12,-533 769.12,-521 769.12,-521 769.12,-515 775.12,-509 781.12,-509 781.12,-509 842.12,-509 842.12,-509 848.12,-509 854.12,-515 854.12,-521 854.12,-521 854.12,-533 854.12,-533 854.12,-539 848.12,-545 842.12,-545"/>
<text text-anchor="start" x="777.12" y="-523.7" font-family="Helvetica,sans-Serif" font-size="9.00" fill="white">nodePresenter.ts</text>
</a>
</g>
</g>
<!-- packages/tree&#45;core/src/core/index.ts&#45;&gt;packages/tree&#45;core/src/core/nodePresenter.ts -->
<g id="edge19" class="edge">
<title>packages/tree&#45;core/src/core/index.ts&#45;&gt;packages/tree&#45;core/src/core/nodePresenter.ts</title>
<path fill="none" stroke="lightgray" d="M647.95,-505C675.57,-507.27 720.21,-511.38 758.5,-517 760.29,-517.26 762.12,-517.54 763.96,-517.84"/>
<polygon fill="lightgray" stroke="lightgray" points="768.86,-518.65 763.56,-520.05 766.39,-518.24 763.93,-517.84 763.93,-517.84 763.93,-517.84 766.39,-518.24 764.29,-515.62 768.86,-518.65 768.86,-518.65"/>
</g>
<!-- packages/tree&#45;core/src/core/nodeStore.ts -->
<g id="node17" class="node">
<title>packages/tree&#45;core/src/core/nodeStore.ts</title>
<g id="a_node17"><a xlink:href="packages/tree-core/src/core/nodeStore.ts" xlink:title="nodeStore.ts">
<path fill="black" stroke="white" d="M934.12,-573C934.12,-573 890.38,-573 890.38,-573 884.38,-573 878.38,-567 878.38,-561 878.38,-561 878.38,-549 878.38,-549 878.38,-543 884.38,-537 890.38,-537 890.38,-537 934.12,-537 934.12,-537 940.12,-537 946.12,-543 946.12,-549 946.12,-549 946.12,-561 946.12,-561 946.12,-567 940.12,-573 934.12,-573"/>
<text text-anchor="start" x="886.38" y="-551.7" font-family="Helvetica,sans-Serif" font-size="9.00" fill="white">nodeStore.ts</text>
</a>
</g>
</g>
<!-- packages/tree&#45;core/src/core/index.ts&#45;&gt;packages/tree&#45;core/src/core/nodeStore.ts -->
<g id="edge20" class="edge">
<title>packages/tree&#45;core/src/core/index.ts&#45;&gt;packages/tree&#45;core/src/core/nodeStore.ts</title>
<path fill="none" stroke="lightgray" d="M645.21,-521.44C646.09,-522.59 646.9,-523.78 647.62,-525 656.84,-540.62 641.6,-553.51 655.62,-565 672.02,-578.44 806.13,-566.27 873.26,-559.22"/>
<polygon fill="lightgray" stroke="lightgray" points="877.98,-558.72 873.24,-561.48 875.49,-558.98 873.01,-559.24 873.01,-559.24 873.01,-559.24 875.49,-558.98 872.77,-557.01 877.98,-558.72 877.98,-558.72"/>
</g>
<!-- packages/tree&#45;core/src/core/nodeViewer.ts -->
<g id="node18" class="node">
<title>packages/tree&#45;core/src/core/nodeViewer.ts</title>
<g id="a_node18"><a xlink:href="packages/tree-core/src/core/nodeViewer.ts" xlink:title="nodeViewer.ts">
<path fill="black" stroke="white" d="M734.75,-559C734.75,-559 685,-559 685,-559 679,-559 673,-553 673,-547 673,-547 673,-535 673,-535 673,-529 679,-523 685,-523 685,-523 734.75,-523 734.75,-523 740.75,-523 746.75,-529 746.75,-535 746.75,-535 746.75,-547 746.75,-547 746.75,-553 740.75,-559 734.75,-559"/>
<text text-anchor="start" x="681" y="-537.7" font-family="Helvetica,sans-Serif" font-size="9.00" fill="white">nodeViewer.ts</text>
</a>
</g>
</g>
<!-- packages/tree&#45;core/src/core/index.ts&#45;&gt;packages/tree&#45;core/src/core/nodeViewer.ts -->
<g id="edge21" class="edge">
<title>packages/tree&#45;core/src/core/index.ts&#45;&gt;packages/tree&#45;core/src/core/nodeViewer.ts</title>
<path fill="none" stroke="lightgray" d="M647.8,-514.4C654.29,-517.23 661.39,-520.32 668.38,-523.36"/>
<polygon fill="lightgray" stroke="lightgray" points="672.71,-525.25 667.23,-525.32 670.42,-524.25 668.13,-523.25 668.13,-523.25 668.13,-523.25 670.42,-524.25 669.03,-521.19 672.71,-525.25 672.71,-525.25"/>
</g>
<!-- packages/tree&#45;core/src/core/nodeGenerator.ts&#45;&gt;packages/tree&#45;core/src/core/node.ts -->
<g id="edge22" class="edge">
<title>packages/tree&#45;core/src/core/nodeGenerator.ts&#45;&gt;packages/tree&#45;core/src/core/node.ts</title>
<path fill="none" stroke="lightgray" d="M955.79,-499.97C961.84,-500.97 967.97,-501.97 973.74,-502.92"/>
<polygon fill="lightgray" stroke="lightgray" points="978.5,-503.7 973.2,-505.11 976.04,-503.29 973.57,-502.89 973.57,-502.89 973.57,-502.89 976.04,-503.29 973.93,-500.67 978.5,-503.7 978.5,-503.7"/>
</g>
<!-- packages/tree&#45;core/src/core/nodePresenter.ts&#45;&gt;packages/tree&#45;core/src/core/nodeGenerator.ts -->
<g id="edge23" class="edge">
<title>packages/tree&#45;core/src/core/nodePresenter.ts&#45;&gt;packages/tree&#45;core/src/core/nodeGenerator.ts</title>
<path fill="none" stroke="lightgray" d="M854.45,-512.58C857.7,-511.46 860.99,-510.33 864.27,-509.2"/>
<polygon fill="lightgray" stroke="lightgray" points="868.73,-507.66 864.74,-511.42 866.37,-508.47 864,-509.29 864,-509.29 864,-509.29 866.37,-508.47 863.27,-507.16 868.73,-507.66 868.73,-507.66"/>
</g>
<!-- packages/tree&#45;core/src/core/nodePresenter.ts&#45;&gt;packages/tree&#45;core/src/core/nodeStore.ts -->
<g id="edge25" class="edge">
<title>packages/tree&#45;core/src/core/nodePresenter.ts&#45;&gt;packages/tree&#45;core/src/core/nodeStore.ts</title>
<path fill="none" stroke="lightgray" d="M854.45,-538.87C860.73,-540.66 867.17,-542.48 873.35,-544.24"/>
<polygon fill="lightgray" stroke="lightgray" points="878.03,-545.57 872.61,-546.37 875.62,-544.89 873.22,-544.2 873.22,-544.2 873.22,-544.2 875.62,-544.89 873.83,-542.04 878.03,-545.57 878.03,-545.57"/>
</g>
<!-- packages/tree&#45;core/src/utils/createEnum.ts -->
<g id="node19" class="node">
<title>packages/tree&#45;core/src/utils/createEnum.ts</title>
<g id="a_node19"><a xlink:href="packages/tree-core/src/utils/createEnum.ts" xlink:title="createEnum.ts">
<path fill="black" stroke="white" d="M1031,-652C1031,-652 980.5,-652 980.5,-652 974.5,-652 968.5,-646 968.5,-640 968.5,-640 968.5,-628 968.5,-628 968.5,-622 974.5,-616 980.5,-616 980.5,-616 1031,-616 1031,-616 1037,-616 1043,-622 1043,-628 1043,-628 1043,-640 1043,-640 1043,-646 1037,-652 1031,-652"/>
<text text-anchor="start" x="976.5" y="-630.7" font-family="Helvetica,sans-Serif" font-size="9.00" fill="white">createEnum.ts</text>
</a>
</g>
</g>
<!-- packages/tree&#45;core/src/core/nodePresenter.ts&#45;&gt;packages/tree&#45;core/src/utils/createEnum.ts -->
<g id="edge24" class="edge">
<title>packages/tree&#45;core/src/core/nodePresenter.ts&#45;&gt;packages/tree&#45;core/src/utils/createEnum.ts</title>
<path fill="none" stroke="lightgray" d="M854.54,-542.88C856.91,-544.71 859.09,-546.75 861,-549 869.91,-559.53 859.66,-568.84 869,-579 896.65,-609.06 917.87,-594.14 955.5,-610 958.2,-611.14 960.97,-612.35 963.75,-613.6"/>
<polygon fill="lightgray" stroke="lightgray" points="968.11,-615.6 962.63,-615.57 965.83,-614.56 963.56,-613.52 963.56,-613.52 963.56,-613.52 965.83,-614.56 964.5,-611.47 968.11,-615.6 968.11,-615.6"/>
</g>
<!-- packages/tree&#45;core/src/core/nodeStore.ts&#45;&gt;packages/tree&#45;core/src/core/node.ts -->
<g id="edge26" class="edge">
<title>packages/tree&#45;core/src/core/nodeStore.ts&#45;&gt;packages/tree&#45;core/src/core/node.ts</title>
<path fill="none" stroke="lightgray" d="M946.54,-537.9C955.59,-533.25 965.34,-528.24 974.22,-523.68"/>
<polygon fill="lightgray" stroke="lightgray" points="978.51,-521.48 975.09,-525.77 976.28,-522.62 974.06,-523.76 974.06,-523.76 974.06,-523.76 976.28,-522.62 973.03,-521.76 978.51,-521.48 978.51,-521.48"/>
</g>
<!-- packages/tree&#45;core/src/core/nodeStore.ts&#45;&gt;packages/tree&#45;core/src/utils/createEnum.ts -->
<g id="edge27" class="edge">
<title>packages/tree&#45;core/src/core/nodeStore.ts&#45;&gt;packages/tree&#45;core/src/utils/createEnum.ts</title>
<path fill="none" stroke="lightgray" d="M935.95,-573.15C942.37,-578.46 949.3,-584.36 955.5,-590 961.54,-595.5 962.5,-597.45 968.5,-603 971.87,-606.12 975.49,-609.35 979.08,-612.48"/>
<polygon fill="lightgray" stroke="lightgray" points="982.66,-615.58 977.41,-614.01 980.77,-613.94 978.88,-612.31 978.88,-612.31 978.88,-612.31 980.77,-613.94 980.35,-610.61 982.66,-615.58 982.66,-615.58"/>
</g>
<!-- packages/tree&#45;core/src/core/nodeViewer.ts&#45;&gt;packages/tree&#45;core/src/core/nodePresenter.ts -->
<g id="edge28" class="edge">
<title>packages/tree&#45;core/src/core/nodeViewer.ts&#45;&gt;packages/tree&#45;core/src/core/nodePresenter.ts</title>
<path fill="none" stroke="lightgray" d="M747.17,-535.91C752.65,-535.14 758.37,-534.33 764.04,-533.54"/>
<polygon fill="lightgray" stroke="lightgray" points="768.77,-532.87 764.14,-535.8 766.3,-533.22 763.82,-533.57 763.82,-533.57 763.82,-533.57 766.3,-533.22 763.51,-531.34 768.77,-532.87 768.77,-532.87"/>
</g>
<!-- packages/tree&#45;core/src/core/nodeViewer.ts&#45;&gt;packages/tree&#45;core/src/core/nodeStore.ts -->
<g id="edge29" class="edge">
<title>packages/tree&#45;core/src/core/nodeViewer.ts&#45;&gt;packages/tree&#45;core/src/core/nodeStore.ts</title>
<path fill="none" stroke="lightgray" d="M747.12,-548.04C754.38,-549.22 761.98,-550.29 769.12,-551 804.3,-554.5 844.6,-555.33 873.28,-555.39"/>
<polygon fill="lightgray" stroke="lightgray" points="878.14,-555.39 873.14,-557.64 875.64,-555.39 873.14,-555.39 873.14,-555.39 873.14,-555.39 875.64,-555.39 873.14,-553.14 878.14,-555.39 878.14,-555.39"/>
</g>
<!-- packages/tree&#45;core/src/generators/GeneratorChess.ts -->
<g id="node20" class="node">
<title>packages/tree&#45;core/src/generators/GeneratorChess.ts</title>
<g id="a_node20"><a xlink:href="packages/tree-core/src/generators/GeneratorChess.ts" xlink:title="GeneratorChess.ts">
<path fill="black" stroke="white" d="M744.12,-274C744.12,-274 675.62,-274 675.62,-274 669.62,-274 663.62,-268 663.62,-262 663.62,-262 663.62,-250 663.62,-250 663.62,-244 669.62,-238 675.62,-238 675.62,-238 744.12,-238 744.12,-238 750.12,-238 756.12,-244 756.12,-250 756.12,-250 756.12,-262 756.12,-262 756.12,-268 750.12,-274 744.12,-274"/>
<text text-anchor="start" x="671.62" y="-252.7" font-family="Helvetica,sans-Serif" font-size="9.00" fill="white">GeneratorChess.ts</text>
</a>
</g>
</g>
<!-- packages/tree&#45;core/src/generators/GeneratorChess.ts&#45;&gt;crypto -->
<g id="edge31" class="edge">
<title>packages/tree&#45;core/src/generators/GeneratorChess.ts&#45;&gt;crypto</title>
<path fill="none" stroke="lightgray" stroke-dasharray="5,2" d="M751.59,-237.79C754.05,-236 756.38,-234.07 758.5,-232 765.69,-224.96 763.78,-220.53 769.12,-212 809.91,-146.99 865.39,-75.33 893.45,-40.08"/>
<polygon fill="lightgray" stroke="lightgray" points="896.4,-36.37 895.04,-41.68 894.84,-38.32 893.28,-40.28 893.28,-40.28 893.28,-40.28 894.84,-38.32 891.52,-38.88 896.4,-36.37 896.4,-36.37"/>
</g>
<!-- packages/tree&#45;core/src/generators/GeneratorChess.ts&#45;&gt;packages/tree&#45;core/src/core/nodeGenerator.ts -->
<g id="edge30" class="edge">
<title>packages/tree&#45;core/src/generators/GeneratorChess.ts&#45;&gt;packages/tree&#45;core/src/core/nodeGenerator.ts</title>
<path fill="none" stroke="lightgray" d="M756.36,-259.81C789.76,-264.99 833.87,-277.22 861,-306 904.32,-351.95 911.12,-431.17 911.67,-470.08"/>
<polygon fill="lightgray" stroke="lightgray" points="911.71,-474.62 909.42,-469.64 911.69,-472.12 911.67,-469.62 911.67,-469.62 911.67,-469.62 911.69,-472.12 913.92,-469.6 911.71,-474.62 911.71,-474.62"/>
</g>
<!-- packages/tree&#45;core/src/generators/GeneratorText.ts -->
<g id="node21" class="node">
<title>packages/tree&#45;core/src/generators/GeneratorText.ts</title>
<g id="a_node21"><a xlink:href="packages/tree-core/src/generators/GeneratorText.ts" xlink:title="GeneratorText.ts">
<path fill="black" stroke="white" d="M841,-254C841,-254 782.25,-254 782.25,-254 776.25,-254 770.25,-248 770.25,-242 770.25,-242 770.25,-230 770.25,-230 770.25,-224 776.25,-218 782.25,-218 782.25,-218 841,-218 841,-218 847,-218 853,-224 853,-230 853,-230 853,-242 853,-242 853,-248 847,-254 841,-254"/>
<text text-anchor="start" x="778.25" y="-232.7" font-family="Helvetica,sans-Serif" font-size="9.00" fill="white">GeneratorText.ts</text>
</a>
</g>
</g>
<!-- packages/tree&#45;core/src/generators/GeneratorText.ts&#45;&gt;crypto -->
<g id="edge33" class="edge">
<title>packages/tree&#45;core/src/generators/GeneratorText.ts&#45;&gt;crypto</title>
<path fill="none" stroke="lightgray" stroke-dasharray="5,2" d="M820.86,-217.79C838.78,-178.2 881.23,-84.35 900.91,-40.86"/>
<polygon fill="lightgray" stroke="lightgray" points="902.97,-36.31 902.95,-41.8 901.93,-38.59 900.9,-40.87 900.9,-40.87 900.9,-40.87 901.93,-38.59 898.85,-39.94 902.97,-36.31 902.97,-36.31"/>
</g>
<!-- packages/tree&#45;core/src/generators/GeneratorText.ts&#45;&gt;packages/tree&#45;core/src/core/nodeGenerator.ts -->
<g id="edge32" class="edge">
<title>packages/tree&#45;core/src/generators/GeneratorText.ts&#45;&gt;packages/tree&#45;core/src/core/nodeGenerator.ts</title>
<path fill="none" stroke="lightgray" d="M844.8,-254.21C850.95,-258.97 856.77,-264.6 861,-271 902.64,-334.06 910.11,-426.78 911.22,-469.67"/>
<polygon fill="lightgray" stroke="lightgray" points="911.33,-474.64 908.97,-469.69 911.28,-472.14 911.22,-469.64 911.22,-469.64 911.22,-469.64 911.28,-472.14 913.47,-469.6 911.33,-474.64 911.33,-474.64"/>
</g>
<!-- packages/tree&#45;core/src/generators/index.ts&#45;&gt;packages/tree&#45;core/src/generators/GeneratorText.ts -->
<g id="edge34" class="edge">
<title>packages/tree&#45;core/src/generators/index.ts&#45;&gt;packages/tree&#45;core/src/generators/GeneratorText.ts</title>
<path fill="none" stroke="lightgray" d="M737.34,-215.43C745.97,-217.85 755.81,-220.61 765.42,-223.31"/>
<polygon fill="lightgray" stroke="lightgray" points="770.11,-224.63 764.69,-225.44 767.71,-223.95 765.3,-223.28 765.3,-223.28 765.3,-223.28 767.71,-223.95 765.91,-221.11 770.11,-224.63 770.11,-224.63"/>
</g>
<!-- packages/tree&#45;core/src/presenters/PresenterText.ts -->
<g id="node26" class="node">
<title>packages/tree&#45;core/src/presenters/PresenterText.ts</title>
<g id="a_node26"><a xlink:href="packages/tree-core/src/presenters/PresenterText.ts" xlink:title="PresenterText.ts">
<path fill="black" stroke="white" d="M738.5,-432C738.5,-432 681.25,-432 681.25,-432 675.25,-432 669.25,-426 669.25,-420 669.25,-420 669.25,-408 669.25,-408 669.25,-402 675.25,-396 681.25,-396 681.25,-396 738.5,-396 738.5,-396 744.5,-396 750.5,-402 750.5,-408 750.5,-408 750.5,-420 750.5,-420 750.5,-426 744.5,-432 738.5,-432"/>
<text text-anchor="start" x="677.25" y="-410.7" font-family="Helvetica,sans-Serif" font-size="9.00" fill="white">PresenterText.ts</text>
</a>
</g>
</g>
<!-- packages/tree&#45;core/src/presenters/index.ts&#45;&gt;packages/tree&#45;core/src/presenters/PresenterText.ts -->
<g id="edge42" class="edge">
<title>packages/tree&#45;core/src/presenters/index.ts&#45;&gt;packages/tree&#45;core/src/presenters/PresenterText.ts</title>
<path fill="none" stroke="lightgray" d="M647.8,-414C652.98,-414 658.55,-414 664.14,-414"/>
<polygon fill="lightgray" stroke="lightgray" points="668.84,-414 663.84,-416.25 666.34,-414 663.84,-414 663.84,-414 663.84,-414 666.34,-414 663.84,-411.75 668.84,-414 668.84,-414"/>
</g>
<!-- packages/tree&#45;core/src/stores/StoreMemory.ts -->
<g id="node27" class="node">
<title>packages/tree&#45;core/src/stores/StoreMemory.ts</title>
<g id="a_node27"><a xlink:href="packages/tree-core/src/stores/StoreMemory.ts" xlink:title="StoreMemory.ts">
<path fill="black" stroke="white" d="M839.12,-353C839.12,-353 784.12,-353 784.12,-353 778.12,-353 772.12,-347 772.12,-341 772.12,-341 772.12,-329 772.12,-329 772.12,-323 778.12,-317 784.12,-317 784.12,-317 839.12,-317 839.12,-317 845.12,-317 851.12,-323 851.12,-329 851.12,-329 851.12,-341 851.12,-341 851.12,-347 845.12,-353 839.12,-353"/>
<text text-anchor="start" x="780.12" y="-331.7" font-family="Helvetica,sans-Serif" font-size="9.00" fill="white">StoreMemory.ts</text>
</a>
</g>
</g>
<!-- packages/tree&#45;core/src/stores/index.ts&#45;&gt;packages/tree&#45;core/src/stores/StoreMemory.ts -->
<g id="edge45" class="edge">
<title>packages/tree&#45;core/src/stores/index.ts&#45;&gt;packages/tree&#45;core/src/stores/StoreMemory.ts</title>
<path fill="none" stroke="lightgray" d="M737.34,-335C746.37,-335 756.72,-335 766.74,-335"/>
<polygon fill="lightgray" stroke="lightgray" points="771.63,-335 766.63,-337.25 769.13,-335 766.63,-335 766.63,-335 766.63,-335 769.13,-335 766.63,-332.75 771.63,-335 771.63,-335"/>
</g>
<!-- packages/tree&#45;core/src/utils/index.ts&#45;&gt;packages/tree&#45;core/src/utils/createEnum.ts -->
<g id="edge46" class="edge">
<title>packages/tree&#45;core/src/utils/index.ts&#45;&gt;packages/tree&#45;core/src/utils/createEnum.ts</title>
<path fill="none" stroke="lightgray" d="M939.72,-634C947.06,-634 955.21,-634 963.2,-634"/>
<polygon fill="lightgray" stroke="lightgray" points="968.13,-634 963.13,-636.25 965.63,-634 963.13,-634 963.13,-634 963.13,-634 965.63,-634 963.13,-631.75 968.13,-634 968.13,-634"/>
</g>
<!-- packages/tree&#45;core/src/presenters/PresenterText.ts&#45;&gt;packages/tree&#45;core/src/core/nodePresenter.ts -->
<g id="edge40" class="edge">
<title>packages/tree&#45;core/src/presenters/PresenterText.ts&#45;&gt;packages/tree&#45;core/src/core/nodePresenter.ts</title>
<path fill="none" stroke="lightgray" d="M728.83,-432.23C737.89,-441.58 748.95,-453.24 758.5,-464 770.29,-477.28 783,-492.62 792.92,-504.83"/>
<polygon fill="lightgray" stroke="lightgray" points="795.9,-508.52 791.01,-506.05 794.33,-506.58 792.76,-504.63 792.76,-504.63 792.76,-504.63 794.33,-506.58 794.5,-503.22 795.9,-508.52 795.9,-508.52"/>
</g>
<!-- packages/tree&#45;core/src/presenters/PresenterText.ts&#45;&gt;packages/tree&#45;core/src/generators/GeneratorText.ts -->
<g id="edge41" class="edge">
<title>packages/tree&#45;core/src/presenters/PresenterText.ts&#45;&gt;packages/tree&#45;core/src/generators/GeneratorText.ts</title>
<path fill="none" stroke="lightgray" d="M746.77,-395.72C751.31,-392.06 755.43,-387.83 758.5,-383 777.01,-353.83 757.73,-338.61 769.12,-306 775.08,-288.96 785.43,-271.49 794.3,-258.26"/>
<polygon fill="lightgray" stroke="lightgray" points="797,-254.3 796.05,-259.7 795.6,-256.37 794.19,-258.43 794.19,-258.43 794.19,-258.43 795.6,-256.37 792.33,-257.17 797,-254.3 797,-254.3"/>
</g>
<!-- packages/tree&#45;core/src/stores/StoreMemory.ts&#45;&gt;packages/tree&#45;core/src/core/node.ts -->
<g id="edge43" class="edge">
<title>packages/tree&#45;core/src/stores/StoreMemory.ts&#45;&gt;packages/tree&#45;core/src/core/node.ts</title>
<path fill="none" stroke="lightgray" d="M832.82,-353.19C868.48,-385.29 942.41,-451.86 980.66,-486.31"/>
<polygon fill="lightgray" stroke="lightgray" points="984.24,-489.54 979.02,-487.86 982.39,-487.86 980.53,-486.19 980.53,-486.19 980.53,-486.19 982.39,-487.86 982.03,-484.52 984.24,-489.54 984.24,-489.54"/>
</g>
<!-- packages/tree&#45;core/src/stores/StoreMemory.ts&#45;&gt;packages/tree&#45;core/src/core/nodeStore.ts -->
<g id="edge44" class="edge">
<title>packages/tree&#45;core/src/stores/StoreMemory.ts&#45;&gt;packages/tree&#45;core/src/core/nodeStore.ts</title>
<path fill="none" stroke="lightgray" d="M820.93,-353.4C831.73,-378.08 850.47,-423.49 861,-464 866.99,-487.06 857.7,-496.03 869,-517 872.27,-523.07 876.9,-528.66 881.91,-533.57"/>
<polygon fill="lightgray" stroke="lightgray" points="885.42,-536.87 880.24,-535.09 883.6,-535.16 881.77,-533.45 881.77,-533.45 881.77,-533.45 883.6,-535.16 883.31,-531.81 885.42,-536.87 885.42,-536.87"/>
</g>
</g>
</svg>
