<?xml version="1.0" encoding="UTF-8" standalone="no"?>
<!DOCTYPE svg PUBLIC "-//W3C//DTD SVG 1.1//EN"
 "http://www.w3.org/Graphics/SVG/1.1/DTD/svg11.dtd">
<!-- Generated by graphviz version 8.0.5 (0)
 -->
<!-- Title: dependency&#45;cruiser output Pages: 1 -->
<svg width="611pt" height="303pt"
 viewBox="0.00 0.00 611.35 303.00" xmlns="http://www.w3.org/2000/svg" xmlns:xlink="http://www.w3.org/1999/xlink">
<g id="graph0" class="graph" transform="scale(1 1) rotate(0) translate(4 299)">
<title>dependency&#45;cruiser output</title>
<polygon fill="#21201e" stroke="none" points="-4,4 -4,-299 607.35,-299 607.35,4 -4,4"/>
<g id="clust1" class="cluster">
<title>cluster_packages</title>
<path fill="none" stroke="white" stroke-width="2" d="M12,-44C12,-44 583.35,-44 583.35,-44 589.35,-44 595.35,-50 595.35,-56 595.35,-56 595.35,-275 595.35,-275 595.35,-281 589.35,-287 583.35,-287 583.35,-287 12,-287 12,-287 6,-287 0,-281 0,-275 0,-275 0,-56 0,-56 0,-50 6,-44 12,-44"/>
<text text-anchor="middle" x="297.68" y="-274.45" font-family="Helvetica,sans-Serif" font-weight="bold" font-size="9.00" fill="white">packages</text>
</g>
<g id="clust2" class="cluster">
<title>cluster_packages/client&#45;chess&#45;terminal</title>
<path fill="none" stroke="white" stroke-width="2" d="M20,-127C20,-127 102,-127 102,-127 108,-127 114,-133 114,-139 114,-139 114,-201 114,-201 114,-207 108,-213 102,-213 102,-213 20,-213 20,-213 14,-213 8,-207 8,-201 8,-201 8,-139 8,-139 8,-133 14,-127 20,-127"/>
<text text-anchor="middle" x="61" y="-200.45" font-family="Helvetica,sans-Serif" font-weight="bold" font-size="9.00" fill="white">client&#45;chess&#45;terminal</text>
</g>
<g id="clust3" class="cluster">
<title>cluster_packages/client&#45;text&#45;terminal&#45;unix</title>
<path fill="none" stroke="white" stroke-width="2" d="M150,-58C150,-58 244,-58 244,-58 250,-58 256,-64 256,-70 256,-70 256,-132 256,-132 256,-138 250,-144 244,-144 244,-144 150,-144 150,-144 144,-144 138,-138 138,-132 138,-132 138,-70 138,-70 138,-64 144,-58 150,-58"/>
<text text-anchor="middle" x="197" y="-131.45" font-family="Helvetica,sans-Serif" font-weight="bold" font-size="9.00" fill="white">client&#45;text&#45;terminal&#45;unix</text>
</g>
<g id="clust4" class="cluster">
<title>cluster_packages/tree&#45;chess</title>
<path fill="none" stroke="white" stroke-width="2" d="M174,-162C174,-162 220,-162 220,-162 226,-162 232,-168 232,-174 232,-174 232,-237 232,-237 232,-243 226,-249 220,-249 220,-249 174,-249 174,-249 168,-249 162,-243 162,-237 162,-237 162,-174 162,-174 162,-168 168,-162 174,-162"/>
<text text-anchor="middle" x="197" y="-236.45" font-family="Helvetica,sans-Serif" font-weight="bold" font-size="9.00" fill="white">tree&#45;chess</text>
</g>
<g id="clust5" class="cluster">
<title>cluster_packages/tree&#45;core</title>
<path fill="none" stroke="white" stroke-width="2" d="M284,-52C284,-52 575.35,-52 575.35,-52 581.35,-52 587.35,-58 587.35,-64 587.35,-64 587.35,-248 587.35,-248 587.35,-254 581.35,-260 575.35,-260 575.35,-260 284,-260 284,-260 278,-260 272,-254 272,-248 272,-248 272,-64 272,-64 272,-58 278,-52 284,-52"/>
<text text-anchor="middle" x="429.68" y="-247.45" font-family="Helvetica,sans-Serif" font-weight="bold" font-size="9.00" fill="white">tree&#45;core</text>
</g>
<g id="clust6" class="cluster">
<title>cluster_packages/tree&#45;core/src</title>
<path fill="none" stroke="white" stroke-width="2" d="M292,-72C292,-72 567.35,-72 567.35,-72 573.35,-72 579.35,-78 579.35,-84 579.35,-84 579.35,-221 579.35,-221 579.35,-227 573.35,-233 567.35,-233 567.35,-233 292,-233 292,-233 286,-233 280,-227 280,-221 280,-221 280,-84 280,-84 280,-78 286,-72 292,-72"/>
<text text-anchor="start" x="422.55" y="-220.45" font-family="Helvetica,sans-Serif" font-weight="bold" font-size="9.00" fill="white">src</text>
</g>
<!-- . -->
<g id="node1" class="node">
<title>.</title>
<g id="a_node1"><a xlink:title=".">
<polygon fill="black" stroke="white" points="504.35,-36 454.35,-36 450.35,-32 450.35,0 500.35,0 504.35,-4 504.35,-36"/>
<polyline fill="none" stroke="white" points="500.35,-32 450.35,-32"/>
<polyline fill="none" stroke="white" points="500.35,-32 500.35,0"/>
<polyline fill="none" stroke="white" points="500.35,-32 504.35,-36"/>
<text text-anchor="middle" x="477.35" y="-14.7" font-family="Helvetica,sans-Serif" font-size="9.00" fill="white">.</text>
</a>
</g>
</g>
<!-- packages -->
<!-- packages/client&#45;chess&#45;terminal -->
<!-- packages/client&#45;chess&#45;terminal/src -->
<g id="node4" class="node">
<title>packages/client&#45;chess&#45;terminal/src</title>
<g id="a_node4"><a xlink:href="packages/client-chess-terminal/src" xlink:title="src">
<polygon fill="black" stroke="white" points="88,-171 38,-171 34,-167 34,-135 84,-135 88,-139 88,-171"/>
<polyline fill="none" stroke="white" points="84,-167 34,-167"/>
<polyline fill="none" stroke="white" points="84,-167 84,-135"/>
<polyline fill="none" stroke="white" points="84,-167 88,-171"/>
<text text-anchor="start" x="55" y="-149.7" font-family="Helvetica,sans-Serif" font-size="9.00" fill="white">src</text>
</a>
</g>
</g>
<!-- packages/client&#45;chess&#45;terminal/src&#45;&gt;. -->
<g id="edge2" class="edge">
<title>packages/client&#45;chess&#45;terminal/src&#45;&gt;.</title>
<path fill="none" stroke="lightgray" stroke-dasharray="5,2" d="M88.24,-146.82C97.46,-143.49 107.21,-138.47 114,-131 137.84,-104.8 111.47,-78.47 138,-55 189.06,-9.83 220.63,-27 288.8,-27 288.8,-27 288.8,-27 335.35,-27 373.15,-27 416.52,-23.74 445.07,-21.14"/>
<polygon fill="lightgray" stroke="lightgray" points="449.88,-20.7 445.1,-23.4 447.39,-20.93 444.9,-21.16 444.9,-21.16 444.9,-21.16 447.39,-20.93 444.69,-18.92 449.88,-20.7 449.88,-20.7"/>
</g>
<!-- packages/tree&#45;core/src -->
<!-- packages/client&#45;chess&#45;terminal/src&#45;&gt;packages/tree&#45;core/src -->
<g id="edge1" class="edge">
<title>packages/client&#45;chess&#45;terminal/src&#45;&gt;packages/tree&#45;core/src</title>
<path fill="none" stroke="lightgray" d="M88.46,-153.35C141.03,-154.05 255.89,-155.56 282.99,-155.92"/>
<polygon fill="lightgray" stroke="lightgray" points="287.9,-155.99 282.87,-158.17 285.4,-155.95 282.9,-155.92 282.9,-155.92 282.9,-155.92 285.4,-155.95 282.93,-153.67 287.9,-155.99 287.9,-155.99"/>
</g>
<!-- packages/tree&#45;chess/src -->
<g id="node6" class="node">
<title>packages/tree&#45;chess/src</title>
<g id="a_node6"><a xlink:href="packages/tree-chess/src" xlink:title="src">
<polygon fill="black" stroke="white" points="224,-222 174,-222 170,-218 170,-186 220,-186 224,-190 224,-222"/>
<polyline fill="none" stroke="white" points="220,-218 170,-218"/>
<polyline fill="none" stroke="white" points="220,-218 220,-186"/>
<polyline fill="none" stroke="white" points="220,-218 224,-222"/>
<text text-anchor="start" x="191" y="-200.7" font-family="Helvetica,sans-Serif" font-size="9.00" fill="white">src</text>
</a>
</g>
</g>
<!-- packages/client&#45;chess&#45;terminal/src&#45;&gt;packages/tree&#45;chess/src -->
<g id="edge3" class="edge">
<title>packages/client&#45;chess&#45;terminal/src&#45;&gt;packages/tree&#45;chess/src</title>
<path fill="none" stroke="lightgray" d="M88.47,-163.08C110.5,-171.46 141.88,-183.4 165.06,-192.22"/>
<polygon fill="lightgray" stroke="lightgray" points="169.58,-193.94 164.11,-194.27 167.24,-193.06 164.91,-192.17 164.91,-192.17 164.91,-192.17 167.24,-193.06 165.71,-190.06 169.58,-193.94 169.58,-193.94"/>
</g>
<!-- packages/tree&#45;core/src/core -->
<g id="node11" class="node">
<title>packages/tree&#45;core/src/core</title>
<g id="a_node11"><a xlink:href="packages/tree-core/src/core" xlink:title="core">
<polygon fill="black" stroke="white" points="504.35,-178 454.35,-178 450.35,-174 450.35,-142 500.35,-142 504.35,-146 504.35,-178"/>
<polyline fill="none" stroke="white" points="500.35,-174 450.35,-174"/>
<polyline fill="none" stroke="white" points="500.35,-174 500.35,-142"/>
<polyline fill="none" stroke="white" points="500.35,-174 504.35,-178"/>
<text text-anchor="start" x="468.35" y="-156.7" font-family="Helvetica,sans-Serif" font-size="9.00" fill="white">core</text>
</a>
</g>
</g>
<!-- packages/tree&#45;core/src&#45;&gt;packages/tree&#45;core/src/core -->
<g id="edge6" class="edge">
<title>packages/tree&#45;core/src&#45;&gt;packages/tree&#45;core/src/core</title>
<path fill="none" stroke="lightgray" d="M291.99,-156.64C302.34,-162.16 378.03,-200.79 437.35,-184 440.51,-183.11 443.66,-181.88 446.72,-180.45"/>
<polygon fill="lightgray" stroke="lightgray" points="450.84,-178.38 447.38,-182.63 448.61,-179.5 446.38,-180.62 446.38,-180.62 446.38,-180.62 448.61,-179.5 445.37,-178.61 450.84,-178.38 450.84,-178.38"/>
</g>
<!-- packages/tree&#45;core/src/generators -->
<g id="node12" class="node">
<title>packages/tree&#45;core/src/generators</title>
<g id="a_node12"><a xlink:href="packages/tree-core/src/generators" xlink:title="generators">
<polygon fill="black" stroke="white" points="437.35,-116 381.1,-116 377.1,-112 377.1,-80 433.35,-80 437.35,-84 437.35,-116"/>
<polyline fill="none" stroke="white" points="433.35,-112 377.1,-112"/>
<polyline fill="none" stroke="white" points="433.35,-112 433.35,-80"/>
<polyline fill="none" stroke="white" points="433.35,-112 437.35,-116"/>
<text text-anchor="start" x="385.1" y="-94.7" font-family="Helvetica,sans-Serif" font-size="9.00" fill="white">generators</text>
</a>
</g>
</g>
<!-- packages/tree&#45;core/src&#45;&gt;packages/tree&#45;core/src/generators -->
<g id="edge7" class="edge">
<title>packages/tree&#45;core/src&#45;&gt;packages/tree&#45;core/src/generators</title>
<path fill="none" stroke="lightgray" d="M291.11,-154.42C292.77,-146.18 300.56,-108.32 304.6,-105 323.02,-89.87 350.22,-88.73 371.85,-91.05"/>
<polygon fill="lightgray" stroke="lightgray" points="376.65,-91.63 371.42,-93.26 374.17,-91.33 371.69,-91.03 371.69,-91.03 371.69,-91.03 374.17,-91.33 371.96,-88.79 376.65,-91.63 376.65,-91.63"/>
</g>
<!-- packages/tree&#45;core/src/presenters -->
<g id="node13" class="node">
<title>packages/tree&#45;core/src/presenters</title>
<g id="a_node13"><a xlink:href="packages/tree-core/src/presenters" xlink:title="presenters">
<polygon fill="black" stroke="white" points="364.1,-147 308.6,-147 304.6,-143 304.6,-111 360.1,-111 364.1,-115 364.1,-147"/>
<polyline fill="none" stroke="white" points="360.1,-143 304.6,-143"/>
<polyline fill="none" stroke="white" points="360.1,-143 360.1,-111"/>
<polyline fill="none" stroke="white" points="360.1,-143 364.1,-147"/>
<text text-anchor="start" x="312.6" y="-125.7" font-family="Helvetica,sans-Serif" font-size="9.00" fill="white">presenters</text>
</a>
</g>
</g>
<!-- packages/tree&#45;core/src&#45;&gt;packages/tree&#45;core/src/presenters -->
<g id="edge8" class="edge">
<title>packages/tree&#45;core/src&#45;&gt;packages/tree&#45;core/src/presenters</title>
<path fill="none" stroke="lightgray" d="M291.85,-155.33C293.39,-154.36 296.48,-152.39 300.32,-149.96"/>
<polygon fill="lightgray" stroke="lightgray" points="304.38,-147.38 301.36,-151.96 302.27,-148.72 300.16,-150.06 300.16,-150.06 300.16,-150.06 302.27,-148.72 298.95,-148.16 304.38,-147.38 304.38,-147.38"/>
</g>
<!-- packages/tree&#45;core/src/stores -->
<g id="node14" class="node">
<title>packages/tree&#45;core/src/stores</title>
<g id="a_node14"><a xlink:href="packages/tree-core/src/stores" xlink:title="stores">
<polygon fill="black" stroke="white" points="434.23,-178 384.23,-178 380.23,-174 380.23,-142 430.23,-142 434.23,-146 434.23,-178"/>
<polyline fill="none" stroke="white" points="430.23,-174 380.23,-174"/>
<polyline fill="none" stroke="white" points="430.23,-174 430.23,-142"/>
<polyline fill="none" stroke="white" points="430.23,-174 434.23,-178"/>
<text text-anchor="start" x="394.85" y="-156.7" font-family="Helvetica,sans-Serif" font-size="9.00" fill="white">stores</text>
</a>
</g>
</g>
<!-- packages/tree&#45;core/src&#45;&gt;packages/tree&#45;core/src/stores -->
<g id="edge9" class="edge">
<title>packages/tree&#45;core/src&#45;&gt;packages/tree&#45;core/src/stores</title>
<path fill="none" stroke="lightgray" d="M292.1,-156.04C300.16,-156.32 344.12,-157.85 375.06,-158.92"/>
<polygon fill="lightgray" stroke="lightgray" points="379.91,-159.09 374.83,-161.16 377.41,-159 374.91,-158.91 374.91,-158.91 374.91,-158.91 377.41,-159 374.99,-156.67 379.91,-159.09 379.91,-159.09"/>
</g>
<!-- packages/tree&#45;core/src/utils -->
<g id="node15" class="node">
<title>packages/tree&#45;core/src/utils</title>
<g id="a_node15"><a xlink:href="packages/tree-core/src/utils" xlink:title="utils">
<polygon fill="black" stroke="white" points="571.35,-192 521.35,-192 517.35,-188 517.35,-156 567.35,-156 571.35,-160 571.35,-192"/>
<polyline fill="none" stroke="white" points="567.35,-188 517.35,-188"/>
<polyline fill="none" stroke="white" points="567.35,-188 567.35,-156"/>
<polyline fill="none" stroke="white" points="567.35,-188 571.35,-192"/>
<text text-anchor="start" x="536.1" y="-170.7" font-family="Helvetica,sans-Serif" font-size="9.00" fill="white">utils</text>
</a>
</g>
</g>
<!-- packages/tree&#45;core/src&#45;&gt;packages/tree&#45;core/src/utils -->
<g id="edge10" class="edge">
<title>packages/tree&#45;core/src&#45;&gt;packages/tree&#45;core/src/utils</title>
<path fill="none" stroke="lightgray" d="M291.27,-157.41C292.65,-161.26 297.03,-172 304.6,-177 331.92,-195.03 344.49,-187.1 377.1,-190 433.5,-195.02 448.55,-193.59 504.35,-184 506.93,-183.56 509.6,-183.03 512.26,-182.45"/>
<polygon fill="lightgray" stroke="lightgray" points="517.04,-181.36 512.67,-184.66 514.6,-181.92 512.17,-182.47 512.17,-182.47 512.17,-182.47 514.6,-181.92 511.67,-180.28 517.04,-181.36 517.04,-181.36"/>
</g>
<!-- packages/tree&#45;chess/src&#45;&gt;packages/tree&#45;core/src -->
<g id="edge5" class="edge">
<title>packages/tree&#45;chess/src&#45;&gt;packages/tree&#45;core/src</title>
<path fill="none" stroke="lightgray" d="M224.32,-194.65C234.48,-190.65 246.03,-185.61 256,-180 266.76,-173.95 278.14,-164.96 284.26,-159.87"/>
<polygon fill="lightgray" stroke="lightgray" points="288.04,-156.67 285.68,-161.62 286.13,-158.29 284.22,-159.9 284.22,-159.9 284.22,-159.9 286.13,-158.29 282.77,-158.19 288.04,-156.67 288.04,-156.67"/>
</g>
<!-- packages/client&#45;text&#45;terminal&#45;unix -->
<!-- packages/client&#45;text&#45;terminal&#45;unix/src -->
<g id="node8" class="node">
<title>packages/client&#45;text&#45;terminal&#45;unix/src</title>
<g id="a_node8"><a xlink:href="packages/client-text-terminal-unix/src" xlink:title="src">
<polygon fill="black" stroke="white" points="224,-102 174,-102 170,-98 170,-66 220,-66 224,-70 224,-102"/>
<polyline fill="none" stroke="white" points="220,-98 170,-98"/>
<polyline fill="none" stroke="white" points="220,-98 220,-66"/>
<polyline fill="none" stroke="white" points="220,-98 224,-102"/>
<text text-anchor="start" x="191" y="-80.7" font-family="Helvetica,sans-Serif" font-size="9.00" fill="white">src</text>
</a>
</g>
</g>
<!-- packages/client&#45;text&#45;terminal&#45;unix/src&#45;&gt;packages/tree&#45;core/src -->
<g id="edge4" class="edge">
<title>packages/client&#45;text&#45;terminal&#45;unix/src&#45;&gt;packages/tree&#45;core/src</title>
<path fill="none" stroke="lightgray" d="M224.33,-89.93C235.33,-93.56 247.49,-99.25 256,-108 269.92,-122.32 257.73,-136.02 272,-150 274.95,-152.89 279.38,-154.39 282.95,-155.18"/>
<polygon fill="lightgray" stroke="lightgray" points="287.74,-155.92 282.45,-157.37 285.26,-155.54 282.79,-155.15 282.79,-155.15 282.79,-155.15 285.26,-155.54 283.14,-152.93 287.74,-155.92 287.74,-155.92"/>
</g>
<!-- packages/tree&#45;chess -->
<!-- packages/tree&#45;core -->
<!-- packages/tree&#45;core/src/core&#45;&gt;packages/tree&#45;core/src/utils -->
<g id="edge11" class="edge">
<title>packages/tree&#45;core/src/core&#45;&gt;packages/tree&#45;core/src/utils</title>
<path fill="none" stroke="lightgray" d="M504.79,-165.69C507.34,-166.24 509.94,-166.8 512.52,-167.36"/>
<polygon fill="lightgray" stroke="lightgray" points="517.15,-168.36 511.78,-169.5 514.7,-167.83 512.26,-167.3 512.26,-167.3 512.26,-167.3 514.7,-167.83 512.73,-165.1 517.15,-168.36 517.15,-168.36"/>
</g>
<!-- packages/tree&#45;core/src/generators&#45;&gt;. -->
<g id="edge13" class="edge">
<title>packages/tree&#45;core/src/generators&#45;&gt;.</title>
<path fill="none" stroke="lightgray" stroke-dasharray="5,2" d="M423.68,-79.85C433.72,-68.07 446.86,-52.64 457.5,-40.14"/>
<polygon fill="lightgray" stroke="lightgray" points="460.72,-36.36 459.19,-41.62 459.1,-38.26 457.48,-40.17 457.48,-40.17 457.48,-40.17 459.1,-38.26 455.76,-38.71 460.72,-36.36 460.72,-36.36"/>
</g>
<!-- packages/tree&#45;core/src/generators&#45;&gt;packages/tree&#45;core/src/core -->
<g id="edge12" class="edge">
<title>packages/tree&#45;core/src/generators&#45;&gt;packages/tree&#45;core/src/core</title>
<path fill="none" stroke="lightgray" d="M428.3,-116.27C435.99,-123.27 444.83,-131.32 452.82,-138.59"/>
<polygon fill="lightgray" stroke="lightgray" points="456.19,-141.65 450.97,-139.95 454.34,-139.97 452.49,-138.28 452.49,-138.28 452.49,-138.28 454.34,-139.97 454,-136.62 456.19,-141.65 456.19,-141.65"/>
</g>
<!-- packages/tree&#45;core/src/presenters&#45;&gt;packages/tree&#45;core/src/core -->
<g id="edge14" class="edge">
<title>packages/tree&#45;core/src/presenters&#45;&gt;packages/tree&#45;core/src/core</title>
<path fill="none" stroke="lightgray" d="M364.18,-127.35C384.99,-127.02 413.52,-128.36 437.35,-136 440.23,-136.92 443.12,-138.1 445.95,-139.44"/>
<polygon fill="lightgray" stroke="lightgray" points="450.33,-141.66 444.85,-141.41 448.1,-140.53 445.87,-139.4 445.87,-139.4 445.87,-139.4 448.1,-140.53 446.89,-137.4 450.33,-141.66 450.33,-141.66"/>
</g>
<!-- packages/tree&#45;core/src/presenters&#45;&gt;packages/tree&#45;core/src/generators -->
<g id="edge15" class="edge">
<title>packages/tree&#45;core/src/presenters&#45;&gt;packages/tree&#45;core/src/generators</title>
<path fill="none" stroke="lightgray" d="M364.59,-116.21C367.29,-115.03 370.04,-113.83 372.78,-112.63"/>
<polygon fill="lightgray" stroke="lightgray" points="377.06,-110.76 373.38,-114.82 374.76,-111.76 372.47,-112.76 372.47,-112.76 372.47,-112.76 374.76,-111.76 371.57,-110.7 377.06,-110.76 377.06,-110.76"/>
</g>
<!-- packages/tree&#45;core/src/stores&#45;&gt;packages/tree&#45;core/src/core -->
<g id="edge16" class="edge">
<title>packages/tree&#45;core/src/stores&#45;&gt;packages/tree&#45;core/src/core</title>
<path fill="none" stroke="lightgray" d="M434.37,-160C437.88,-160 441.5,-160 445.09,-160"/>
<polygon fill="lightgray" stroke="lightgray" points="449.94,-160 444.94,-162.25 447.44,-160 444.94,-160 444.94,-160 444.94,-160 447.44,-160 444.94,-157.75 449.94,-160 449.94,-160"/>
</g>
</g>
</svg>
